<svg xmlns:svg="http://www.w3.org/2000/svg" xmlns="http://www.w3.org/2000/svg" width="800.0" height="240.0">
    <g transform="scale(0.34588247614990997, -0.34588247614990997)   translate(1276.9666342127257,-413.9012986811541)" stroke-width="2.8911554327100024" fill="none">
       <!-- hidden lines -->
       <g stroke="rgb(160,160,160)" fill="none" stroke-dasharray="2.8911554327100024,2.8911554327100024">
			<path d="M-311.02782070931755,62.343982313691896 L-311.02782070931755,356.07819002695396 "/>
			<path d="M245.40317265516433,-129.40441985241569 L243.9778699722424,-128.5785063557241 L242.54633748152355,-127.75303834904506 L241.10857855154154,-126.92801777478451 L239.66459656548295,-126.10344657429553 L238.21439492117588,-125.27932668787386 L236.75797703108537,-124.45566005475317 L235.29534632230343,-123.63244861310056 L233.8265062365408,-122.80969430001213 L232.35146023012067,-121.98739905150828 L230.870211773969,-121.1655648025291 L229.38276435360604,-120.34419348692998 L227.8891214691389,-119.52328703747696 L226.3892866352544,-118.70284738584226 L224.8832633812085,-117.88287646259957 L223.37105525081915,-117.06337619721972 L221.85266580245798,-116.244348518066 L220.32809860904263,-115.42579535238957 L218.79735725802675,-114.60771862632521 L217.26044535139226,-113.79012026488641 L215.71736650564208,-112.97300219196111 L214.16812435178917,-112.1563663303071 L212.61272253535026,-111.34021460154739 L211.05116471633528,-110.52454892616583 L209.48345456924199,-109.70937122350259 L207.90959578304273,-108.89468341174958 L206.32959206117994,-108.08048740794581 L204.74344712155425,-107.26678512797321 L203.1511646965182,-106.4535784865518 L201.55274853286664,-105.6408693972354 L199.94820239182718,-104.82865977240698 L198.3375300490511,-104.01695152327423 L196.72073529460613,-103.20574655986513 L195.0978219329677,-102.39504679102322 L193.46879378300628,-101.58485412440342 L191.8336546779833,-100.77517046646736 L190.1924084655384,-99.96599772247882 L188.545059007683,-99.15733779649952 L186.89161018078903,-98.34919259138434 L185.23206587558207,-97.54156400877702 L183.5664299971295,-96.73445394910561 L181.8947064648337,-95.92786431157808 L180.21689921242114,-95.12179699417771 L178.53301218793513,-94.31625389365877 L176.84304935372393,-93.51123690554203 L175.14701468643352,-92.7067479241102 L173.4449121769976,-91.90278884240357 L171.73674583062711,-91.09936155221547 L170.02251966680342,-90.29646794408796 L168.30223771926512,-89.49410990730735 L166.5759040360026,-88.69228932989941 L164.84352267924578,-87.89100809862558 L163.10509772545538,-87.0902680989779 L161.36063326531212,-86.290071215175 L159.61013340371073,-85.49041933015741 L157.85360225974637,-84.69131432558328 L156.0910439667059,-83.89275808182381 L154.32246267205892,-83.09475247795908 L152.54786253744942,-82.2972993917733 L150.76724773868136,-81.50040069975063 L148.98062246571453,-80.70405827707066 L147.18799092265044,-79.908273997604 L145.3893573277237,-79.11304973390801 L143.58472591329382,-78.31838735722212 L141.77410092583295,-77.52428873746373 L139.95748662591495,-76.73075574322354 L138.13488728821085,-75.93779024176138 L136.30630720147155,-75.14539409900166 L134.47175066852242,-74.35356917952905 L132.63122200625367,-73.56231734658405 L130.78472554560585,-72.77164046205868 L128.9322656315635,-71.98154038649201 L127.07384662314462,-71.19201897906584 L125.20947289338801,-70.40307809760031 L123.3391488293446,-69.61471959854956 L121.46287883206878,-68.82694533699723 L119.58066731660392,-68.0397571666523 L117.69251871197685,-67.2531569398445 L115.7984374611824,-66.46714650752023 L113.89842802117755,-65.68172771923793 L111.99249486286726,-64.89690242316385 L110.08064247109724,-64.1126724660678 L108.16287534464027,-63.32903969331852 L106.23919799618761,-62.546005948879696 L104.30961495233805,-61.76357307530537 L102.374130753587,-60.981742913735616 L100.43274995431557,-60.20051730389241 L98.4854771227806,-59.41989808407499 L96.53231684110278,-58.639887091155856 L94.57327370525718,-57.8604861605761 L92.60835232506088,-57.08169712634157 L90.6375573241653,-56.30352182101802 L88.66089334003937,-55.52596207572702 L86.67836502396585,-54.74901972014186 L84.68997704102458,-53.97269658248291 L82.69573407008556,-53.19699448951354 L80.6956408037936,-52.421915266535734 L78.68970194856274,-51.64746073738564 L76.67792222456046,-50.87363272442974 L74.66030636569894,-50.10043304855998 L72.63685911962239,-49.327863529189926 L70.60758524769835,-48.55592598425028 L68.57248952500368,-47.78462223018465 L66.53157674031627,-47.01395408194526 L64.48485169610012,-46.2439233529887 L62.43231920849712,-45.47453185527178 L60.3739841073143,-44.7057813992468 L58.309851236013856,-43.93767379385798 L56.23992545169904,-43.17021084653675 L54.16421162510551,-42.40339436319749 L52.082714640588165,-41.637226148233424 L49.995439396110214,-40.87170800451236 L47.90239080323272,-40.10684173337262 L45.803573787100504,-39.34262913461828 L43.69899328643305,-38.57907200651533 L41.58865425351178,-37.816172145787505 L39.47256165416775,-37.05393134761198 L37.35072046777168,-36.292351405614966 L35.22313568722075,-35.53143411186744 L33.089812318927216,-34.77118125688145 L30.95075538280753,-34.01159462960538 L28.805969912268665,-33.252676017420015 L26.65546095419859,-32.494427206133935 L24.49923356895215,-31.736849979980093 L22.337292830341084,-30.979946121610737 L20.169643825620824,-30.223717412093777 L17.996291655478217,-29.468165630908402 L15.81724143402107,-28.71329255594094 L13.632498288765873,-27.959099963480753 L11.442067360623241,-27.20558962821582 L9.245953803888824,-26.452763323228623 L7.044162786230572,-25.700622819992248 L4.8366994886750945,-24.949169888366043 L2.6235691055971984,-24.198406296591315 L0.40477684470579334,-23.44833381128717 L-1.8196720729665685,-22.69895419744671 L-4.049772413075971,-21.950269218432595 L-6.285518927981684,-21.202280635972954 L-8.526906356756172,-20.454990210157007 L-10.773929425198276,-19.708399699431425 L-13.026582845844587,-18.962510860595785 L-15.284861317984905,-18.21732544879859 L-17.548759527672246,-17.472845217533006 L-19.818272147735115,-16.729071918632997 L-22.0933938377907,-15.986007302269002 L-24.374119244258054,-15.24365311694379 L-26.660443000369924,-14.502011109488478 L-28.95235972618684,-13.761083025058326 L-31.249864028605316,-13.02087060712887 L-33.55295050137693,-12.281375597491206 L-35.86161372511697,-11.542599736248576 L-38.17584826731763,-10.804544761811997 L-40.49564868236075,-10.067212410896104 L-42.82100951153279,-9.330604418515122 L-45.151925283035325,-8.594722517978767 L-47.488390511997295,-7.859568440888324 L-49.8303997004914,-7.125143917132334 L-52.17794733754272,-6.391450674882549 L-54.53102789914601,-5.658490440590185 L-56.88963584827434,-4.926264938981433 L-59.253765634896354,-4.1947758930535315 L-61.62341169598585,-3.4640250240709065 L-63.998568455536315,-2.7340140515610187 L-66.37923032457547,-2.0047446933101583 L-68.76539170117485,-1.2762186653595222 L-71.15704697046704,-0.5484376820012926 L-73.55419050465616,0.17859654422568383 L-75.95681666303108,0.9048823025394768 L-78.36491979198127,1.6304178839196197 L-80.77849422500731,2.355201581110805 L-83.19753428273498,3.079231688627033 L-85.6220342729298,3.8025065027555343 L-88.05198849050885,4.525024321560636 L-90.48739121755534,5.246783444888251 L-92.92823672333134,5.967782174369461 L-95.3745192642914,6.6880188134246055 L-97.8262330840962,7.407491667267209 L-100.28337241362715,8.12619904290824 L-102.74593147099722,8.844139249159753 L-105.21390446156738,9.561310596639203 L-107.68728557795885,10.277711397772919 L-110.16606900006673,10.993339966800818 L-112.65024889507458,11.708194619779704 L-115.13981941746715,12.42227367458753 L-117.634774709044,13.135575450927263 L-120.1351088989345,13.848098270330865 L-122.64081610361063,14.559840456163442 L-125.15189042690236,15.27080033362688 L-127.66832596000768,15.980976229763769 L-130.19011678151173,16.690366473461722 L-132.71725695739678,17.398969395457016 L-135.24974054105815,18.10678332833851 L-137.78756157331645,18.813806606551452 L-140.33071408243495,19.52003756640198 L-142.8791920841295,20.225474546060468 L-145.43298958158493,20.930115885565442 L-147.99210056546963,21.6339599268278 L-150.55651901394776,22.337005013634382 L-153.12623889269526,23.03924949165247 L-155.70125415491293,23.74069170843285 L-158.2815587413411,24.441330013414074 L-160.86714658027404,25.14116275792668 L-163.4580115875733,25.84018829519664 L-166.05414766668355,26.538404980349355 L-168.65554870864617,27.235811170413342 L-171.26220859211298,27.93240522432461 L-173.87412118336078,28.628185502930137 L-176.49128033630814,29.323150368991662 L-179.11367989252585,30.01729818718951 L-181.74131368125518,30.710627324127074 L-184.37417551941962,31.403136148333942 L-187.01225921164087,32.09482303026971 L-189.65555855025286,32.785686342328574 L-192.3040673153173,33.475724458842194 L-194.95777927463723,34.1649357560845 L-197.61668818377257,34.85331861227456 L-200.28078778605277,35.540871407580994 L-202.95007181259507,36.227592524125726 L-205.62453398231582,36.91348034598769 L-208.30416800194735,37.59853325920653 L-210.98896756605154,38.282749651786446 L-213.6789263570363,38.966127913700404 L-216.37403804516862,39.64866643689322 L-219.07429628858972,40.330363615285705 L-221.77969473333224,41.0112178447788 L-224.49022701333115,41.6912275232566 L-227.20588675044337,42.37039105059051 L-229.9266675544577,43.048706828643446 L-232.65256302311582,43.72617326127266 L-235.38356674212082,44.40278875433415 L-238.11967228515823,45.078551715686444 L-240.86087321390687,45.75346055519395 L-243.60716307805615,46.42751368473097 L-246.35853541532106,47.10070951818534 L-249.1149837514563,47.77304647146235 L-251.8765016002735,48.44452296248818 L-254.64308246365317,49.11513741121371 L-257.41471983156407,49.78488823961834 L-260.1914071820761,50.45377387171385 L-262.9731379813752,51.12179273354758 L-265.75990568377983,51.78894325320664 L-268.55170373175633,52.45522386082138 L-271.34852555593534,53.1206329885693 L-274.15036457512406,53.78516907067842 L-276.95721419632446,54.44883054343097 L-282.5859188138338,55.7735234162904 L-288.23458642895093,57.0946991386337 L-293.90316387426583,58.412345275051905 L-299.5915977949685,59.72644942335762 L-305.29983464935185,61.036999214702234 L-311.0278207093156,62.34398231369153 "/>
			<path d="M-311.02782070931755,62.343982313691896 L-698.7355476707253,-8.10959237209336 "/>

       </g>

       <!-- solid lines -->
       <g stroke="rgb(0,0,0)" fill="none">
			<path d="M245.40317265516433,-129.4044198524157 L245.40317265516433,164.32978786084632 "/>
			<path d="M-245.40317265516452,-164.32978786084632 L245.40317265516435,-129.4044198524157 "/>
			<path d="M-245.40317265516452,-164.32978786084632 L-245.40317265516452,129.4044198524157 "/>
			<path d="M245.40317265516433,164.32978786084632 L-245.40317265516455,129.4044198524157 "/>
			<path d="M245.40317265516433,164.32978786084632 L243.9778699722424,165.1557013575379 L242.54633748152355,165.98116936421695 L241.10857855154154,166.8061899384775 L239.66459656548295,167.63076113896648 L238.21439492117588,168.45488102538815 L236.75797703108537,169.27854765850884 L235.29534632230343,170.10175910016144 L233.8265062365408,170.92451341324988 L232.35146023012067,171.74680866175373 L230.870211773969,172.5686429107329 L229.38276435360604,173.39001422633203 L227.8891214691389,174.21092067578505 L226.3892866352544,175.03136032741975 L224.8832633812085,175.85133125066244 L223.37105525081915,176.67083151604228 L221.85266580245798,177.489859195196 L220.32809860904263,178.30841236087244 L218.79735725802675,179.1264890869368 L217.26044535139226,179.9440874483756 L215.71736650564208,180.7612055213009 L214.16812435178917,181.57784138295492 L212.61272253535026,182.39399311171462 L211.05116471633528,183.20965878709617 L209.48345456924199,184.02483648975942 L207.90959578304273,184.83952430151243 L206.32959206117994,185.6537203053162 L204.74344712155425,186.4674225852888 L203.1511646965182,187.2806292267102 L201.55274853286664,188.0933383160266 L199.94820239182718,188.90554794085503 L198.3375300490511,189.71725618998778 L196.72073529460613,190.52846115339688 L195.0978219329677,191.3391609222388 L193.46879378300628,192.1493535888586 L191.8336546779833,192.95903724679465 L190.1924084655384,193.7682099907832 L188.545059007683,194.5768699167625 L186.89161018078903,195.38501512187767 L185.23206587558207,196.192643704485 L183.5664299971295,196.9997537641564 L181.8947064648337,197.80634340168393 L180.21689921242114,198.6124107190843 L178.53301218793513,199.41795381960324 L176.84304935372393,200.22297080771997 L175.14701468643352,201.0274597891518 L173.4449121769976,201.83141887085844 L171.73674583062711,202.63484616104654 L170.02251966680342,203.43773976917404 L168.30223771926512,204.24009780595466 L166.5759040360026,205.0419183833626 L164.84352267924578,205.84319961463643 L163.10509772545538,206.6439396142841 L161.36063326531212,207.444136498087 L159.61013340371073,208.2437883831046 L157.85360225974637,209.04289338767873 L156.0910439667059,209.8414496314382 L154.32246267205892,210.63945523530293 L152.54786253744942,211.43690832148872 L150.76724773868136,212.23380701351138 L148.98062246571453,213.03014943619135 L147.18799092265044,213.825933715658 L145.3893573277237,214.621157979354 L143.58472591329382,215.4158203560399 L141.77410092583295,216.20991897579827 L139.95748662591495,217.00345197003847 L138.13488728821085,217.79641747150063 L136.30630720147155,218.58881361426035 L134.47175066852242,219.38063853373296 L132.63122200625367,220.17189036667796 L130.78472554560585,220.96256725120332 L128.9322656315635,221.75266732677 L127.07384662314462,222.54218873419617 L125.20947289338801,223.3311296156617 L123.3391488293446,224.11948811471245 L121.46287883206878,224.90726237626478 L119.58066731660392,225.69445054660972 L117.69251871197685,226.4810507734175 L115.7984374611824,227.26706120574178 L113.89842802117755,228.05247999402408 L111.99249486286726,228.83730529009816 L110.08064247109724,229.6215352471942 L108.16287534464027,230.4051680199435 L106.23919799618761,231.1882017643823 L104.30961495233805,231.97063463795664 L102.374130753587,232.7524647995264 L100.43274995431557,233.5336904093696 L98.4854771227806,234.31430962918702 L96.53231684110278,235.09432062210615 L94.57327370525718,235.8737215526859 L92.60835232506088,236.65251058692044 L90.6375573241653,237.430685892244 L88.66089334003937,238.208245637535 L86.67836502396585,238.98518799312015 L84.68997704102458,239.7615111307791 L82.69573407008556,240.53721322374847 L80.6956408037936,241.31229244672627 L78.68970194856274,242.08674697587637 L76.67792222456046,242.86057498883227 L74.66030636569894,243.63377466470203 L72.63685911962239,244.40634418407208 L70.60758524769835,245.17828172901173 L68.57248952500368,245.94958548307736 L66.53157674031627,246.72025363131675 L64.48485169610012,247.4902843602733 L62.43231920849712,248.25967585799023 L60.3739841073143,249.0284263140152 L58.309851236013856,249.79653391940403 L56.23992545169904,250.56399686672526 L54.16421162510551,251.33081335006452 L52.082714640588165,252.09698156502859 L49.995439396110214,252.86249970874965 L47.90239080323272,253.6273659798894 L45.803573787100504,254.39157857864373 L43.69899328643305,255.15513570674668 L41.58865425351178,255.9180355674745 L39.47256165416775,256.68027636565006 L37.35072046777168,257.4418563076471 L35.22313568722075,258.2027736013946 L33.089812318927216,258.9630264563806 L30.95075538280753,259.72261308365665 L28.805969912268665,260.481531695842 L26.65546095419859,261.2397805071281 L24.49923356895215,261.99735773328194 L22.337292830341084,262.7542615916513 L20.169643825620824,263.51049030116826 L17.996291655478217,264.26604208235364 L15.81724143402107,265.0209151573211 L13.632498288765873,265.7751077497813 L11.442067360623241,266.5286180850462 L9.245953803888824,267.2814443900334 L7.044162786230572,268.0335848932698 L4.8366994886750945,268.785037824896 L2.6235691055971984,269.5358014166707 L0.40477684470579334,270.28587390197487 L-1.8196720729665685,271.0352535158153 L-4.049772413075971,271.78393849482944 L-6.285518927981684,272.5319270772891 L-8.526906356756172,273.27921750310503 L-10.773929425198276,274.0258080138306 L-13.026582845844587,274.77169685266625 L-15.284861317984905,275.51688226446345 L-17.548759527672246,276.26136249572903 L-19.818272147735115,277.00513579462904 L-22.0933938377907,277.74820041099304 L-24.374119244258054,278.49055459631825 L-26.660443000369924,279.23219660377356 L-28.95235972618684,279.9731246882037 L-31.249864028605316,280.71333710613317 L-33.55295050137693,281.45283211577083 L-35.86161372511697,282.19160797701346 L-38.17584826731763,282.92966295145004 L-40.49564868236075,283.66699530236593 L-42.82100951153279,284.4036032947469 L-45.151925283035325,285.13948519528327 L-47.488390511997295,285.8746392723737 L-49.8303997004914,286.6090637961297 L-52.17794733754272,287.3427570383795 L-54.53102789914601,288.07571727267185 L-56.88963584827434,288.8079427742806 L-59.253765634896354,289.5394318202085 L-61.62341169598585,290.27018268919113 L-63.998568455536315,291.000193661701 L-66.37923032457547,291.7294630199519 L-68.76539170117485,292.4579890479025 L-71.15704697046704,293.18577003126074 L-73.55419050465616,293.9128042574877 L-75.95681666303108,294.6390900158015 L-78.36491979198127,295.36462559718166 L-80.77849422500731,296.08940929437284 L-83.19753428273498,296.81343940188907 L-85.6220342729298,297.5367142160176 L-88.05198849050885,298.2592320348227 L-90.48739121755534,298.9809911581503 L-92.92823672333134,299.7019898876315 L-95.3745192642914,300.42222652668664 L-97.8262330840962,301.14169938052925 L-100.28337241362715,301.8604067561703 L-102.74593147099722,302.5783469624218 L-105.21390446156738,303.29551830990124 L-107.68728557795885,304.01191911103496 L-110.16606900006673,304.72754768006286 L-112.65024889507458,305.44240233304174 L-115.13981941746715,306.15648138784957 L-117.634774709044,306.8697831641893 L-120.1351088989345,307.5823059835929 L-122.64081610361063,308.2940481694255 L-125.15189042690236,309.0050080468889 L-127.66832596000768,309.7151839430258 L-130.19011678151173,310.42457418672376 L-132.71725695739678,311.13317710871905 L-135.24974054105815,311.84099104160055 L-137.78756157331645,312.5480143198135 L-140.33071408243495,313.254245279664 L-142.8791920841295,313.9596822593225 L-145.43298958158493,314.6643235988275 L-147.99210056546963,315.36816764008984 L-150.55651901394776,316.0712127268964 L-153.12623889269526,316.7734572049145 L-155.70125415491293,317.4748994216949 L-158.2815587413411,318.1755377266761 L-160.86714658027404,318.8753704711887 L-163.4580115875733,319.5743960084587 L-166.05414766668355,320.2726126936114 L-168.65554870864617,320.9700188836754 L-171.26220859211298,321.66661293758665 L-173.87412118336078,322.3623932161922 L-176.49128033630814,323.0573580822537 L-179.11367989252585,323.75150590045155 L-181.74131368125518,324.4448350373891 L-184.37417551941962,325.137343861596 L-187.01225921164087,325.82903074353175 L-189.65555855025286,326.5198940555906 L-192.3040673153173,327.20993217210423 L-194.95777927463723,327.89914346934654 L-197.61668818377257,328.5875263255366 L-200.28078778605277,329.27507912084303 L-202.95007181259507,329.96180023738776 L-205.62453398231582,330.64768805924973 L-208.30416800194735,331.33274097246857 L-210.98896756605154,332.0169573650485 L-213.6789263570363,332.70033562696244 L-216.37403804516862,333.38287415015526 L-219.07429628858972,334.06457132854774 L-221.77969473333224,334.74542555804084 L-224.49022701333115,335.42543523651864 L-227.20588675044337,336.10459876385255 L-229.9266675544577,336.7829145419055 L-232.65256302311582,337.4603809745347 L-235.38356674212082,338.1369964675962 L-238.11967228515823,338.8127594289485 L-240.86087321390687,339.487668268456 L-243.60716307805615,340.161721397993 L-246.35853541532106,340.8349172314474 L-249.1149837514563,341.5072541847244 L-251.8765016002735,342.1787306757502 L-254.64308246365317,342.84934512447575 L-257.41471983156407,343.5190959528804 L-260.1914071820761,344.1879815849759 L-262.9731379813752,344.8560004468096 L-265.75990568377983,345.5231509664687 L-268.55170373175633,346.1894315740834 L-271.34852555593534,346.85484070183134 L-274.15036457512406,347.51937678394046 L-276.95721419632446,348.183038256693 L-282.5859188138338,349.50773112955244 L-288.23458642895093,350.82890685189574 L-293.90316387426583,352.14655298831394 L-299.5915977949685,353.46065713661966 L-305.29983464935185,354.7712069279643 L-311.0278207093156,356.07819002695356 "/>
			<path d="M-698.735547670725,-8.109592372093402 L-698.735547670725,285.62461534116864 "/>
			<path d="M-311.02782070931755,356.07819002695396 L-698.7355476707253,285.6246153411687 "/>
			<path d="M-698.7355476707248,-8.109592372093402 L-694.0688746140729,-9.174410398831299 L-689.4182915207368,-10.242134261396984 L-684.7838421637755,-11.312753909966943 L-680.1655701643922,-12.386259267460957 L-675.5635189915217,-13.462640229637998 L-670.9777319614213,-14.541886665190589 L-666.4082522372667,-15.62398841583996 L-661.8551228287401,-16.7089352964324 L-657.3183865916296,-17.796717095035035 L-652.7980862274253,-18.887323573030812 L-648.2942642829148,-19.98074446521639 L-643.8069631497858,-21.076969479898082 L-639.3362250642263,-22.175988298988216 L-634.8820921065249,-23.277790578103293 L-630.4446062006771,-24.382365946660855 L-626.0238091139915,-25.489704007976343 L-621.6197424566933,-26.599794339362575 L-617.2324476815345,-27.71262649222672 L-612.8619660834056,-28.828189992168234 L-608.5083387989434,-29.946474339078918 L-604.1716068061451,-31.06746900724079 L-599.8518109239853,-32.19116344542459 L-595.5489918120275,-33.31754707699059 L-591.2631899700427,-34.4466092999873 L-586.9944457376321,-35.57833948725073 L-582.742799293841,-36.712726986505345 L-578.5082906567848,-37.84976112046428 L-574.2909596832721,-38.98943118692887 L-570.0908460684282,-40.131726458890626 L-565.9079893453209,-41.2766361846314 L-561.7424288845923,-42.42414958782473 L-557.5942038940834,-43.57425586763742 L-553.463353418467,-44.72694419883118 L-549.3499163388815,-45.882203731864536 L-545.2539313725629,-47.040023592994885 L-541.1754370724825,-48.200392884380335 L-537.1144718269811,-49.36330068418346 L-533.07107385941,-50.528736046673316 L-529.0452812277722,-51.696688002328074 L-525.0371318243599,-52.86714555793918 L-521.0466633754017,-54.04009769671467 L-517.0739134407072,-55.215533378381906 L-513.1189194133119,-56.39344153929278 L-509.1817185191244,-57.573811092527194 L-505.2623478165806,-58.756630927997094 L-501.36084419628946,-59.941889912551744 L-497.4772443806887,-61.12957689008255 L-493.61158492369987,-62.31968068162686 L-489.7639022103813,-63.51219008547483 L-485.9342324565873,-64.7070938772739 L-482.1226117086296,-65.90438081013409 L-478.32907584293366,-67.10403961473509 L-474.55366056570347,-68.30605899943149 L-470.79640141258596,-69.51042765035862 L-467.0573337483354,-70.71713423154037 L-463.3364927664795,-71.9261673849949 L-459.63391348899245,-73.13751573084139 L-455.9496307659592,-74.35116786740807 L-452.28367927525187,-75.56711237133896 L-448.6360935222028,-76.78533779770092 L-446.81919853295744,-77.39530227437868 L-445.00690783927826,-78.00583268009254 L-443.1992257056604,-78.61692757820515 L-441.3961563857547,-79.22858553075122 L-439.597704122358,-79.84080509844063 L-437.8038731474019,-80.45358484066125 L-436.01466768194405,-81.0669233154834 L-434.2300919361569,-81.6808190796626 L-432.45015010932025,-82.29527068864266 L-430.6748463898091,-82.91027669655938 L-428.90418495508493,-83.52583565624437 L-427.13816997168465,-84.14194611922812 L-425.37680559521164,-84.75860663574306 L-423.62009597032716,-85.37581575472737 L-421.8680452307385,-85.99357202382848 L-420.1206574991909,-86.61187398940592 L-418.3779368874557,-87.23072019653566 L-416.63988749632244,-87.85010918901298 L-414.9065134155901,-88.47003950935562 L-413.17781872405476,-89.09050969880755 L-411.4538074895024,-89.71151829734254 L-409.7344837686983,-90.33306384366719 L-408.0198516073767,-90.95514487522496 L-406.3099150402322,-91.57775992819927 L-404.60467809091165,-92.20090753751657 L-402.90414477200216,-92.8245862368504 L-401.20831908502237,-93.44879455862446 L-399.5172050204151,-94.07353103401613 L-397.83080655753383,-94.69879419296029 L-396.1491276646375,-95.32458256415254 L-394.47217229887883,-95.95089467505221 L-392.7999444062957,-96.5777290518864 L-391.1324479218024,-97.20508421965326 L-389.46968676917913,-97.83295870212532 L-387.8116648610637,-98.46135102185343 L-386.1583860989408,-99.09025970016995 L-384.50985437313557,-99.71968325719186 L-382.86607356280274,-100.34962021182466 L-381.2270475359169,-100.98006908176592 L-379.59278014926576,-101.61102838350831 L-377.96327524843696,-102.24249663234386 L-376.33853666781283,-102.87447234236697 L-374.718568230561,-103.50695402647753 L-373.10337374862365,-104.13994019638508 L-371.4929570227091,-104.773429362612 L-369.8873218422839,-105.40742003449694 L-368.28647198556246,-106.04191072019873 L-366.6904112194986,-106.67689992669972 L-365.09914329977823,-107.31238615980877 L-363.5126719708078,-107.94836792416541 L-361.93100096570834,-108.5848437232431 L-360.3541340063043,-109.2218120593526 L-358.7820748031161,-109.85927143364611 L-357.21482705535004,-110.49722034612032 L-355.65239445089196,-111.13565729561961 L-354.0947806662971,-111.77458077984019 L-352.5419893667804,-112.41398929533335 L-350.9940242062112,-113.05388133750893 L-349.4508888270998,-113.69425540063932 L-347.91258686059246,-114.33510997786271 L-346.3791219264631,-114.97644356118619 L-344.85049763310235,-115.61825464148981 L-343.3267175775113,-116.26054170853018 L-341.8077853452919,-116.90330325094354 L-340.29370451063824,-117.54653775625016 L-338.784478636328,-118.19024371085723 L-337.2801112737161,-118.83441960006229 L-335.7806059627237,-119.4790639080573 L-334.28596623183194,-120.12417511793183 L-332.7961955980736,-120.7697517116768 L-331.3112975670215,-121.41579217018827 L-329.8312756327841,-122.06229497327084 L-328.3561332779964,-122.70925859964072 L-326.88587397381116,-123.35668152692989 L-325.42050117989083,-124.00456223168979 L-323.96001834439767,-124.65289918939479 L-322.5044289039897,-125.30169087444517 L-321.05373628380994,-125.95093576017143 L-319.60794389747707,-126.60063231883763 L-318.167055147082,-127.25077902164483 L-316.73107342317417,-127.90137433873525 L-315.3000021047569,-128.55241673919545 L-313.87384455927986,-129.20390469105956 L-312.45260414262884,-129.85583666131348 L-311.03628419912,-130.50821111589835 L-309.62488806149213,-131.16102651971386 L-308.2184190508956,-131.81428133662246 L-306.8168804768875,-132.4679740294527 L-305.4202756374243,-133.12210306000236 L-304.0286078188519,-133.7766668890426 L-302.6418802958983,-134.4316639763215 L-301.26009633166905,-135.08709278056742 L-299.88325917763405,-135.74295175949337 L-298.511372073624,-136.39923936979991 L-297.1444382478221,-137.05595406717876 L-295.78246091675555,-137.71309430631675 L-294.425443285289,-138.3706585408995 L-293.0733885466161,-139.0286452236146 L-291.7262998822516,-139.68705280615603 L-290.3841804620256,-140.34587973922734 L-289.04703344407426,-141.0051244725449 L-287.71486197483455,-141.66478545484222 L-286.38766918903366,-142.32486113387327 L-285.0654582096854,-142.985349956416 L-283.74823214807975,-143.64625036827664 L-282.435994103776,-144.30756081429286 L-281.12874716459737,-144.96927973833706 L-279.8264944066227,-145.63140558332077 L-278.52923889417843,-146.29393679119786 L-277.23698367983206,-146.95687180296824 L-275.94973180438456,-147.62020905868198 L-274.6674862968639,-148.2839469974426 L-273.39025017451786,-148.94808405741048 L-272.1180264428067,-149.6126186758069 L-270.85081809539497,-150.27754928891775 L-269.58862811414747,-150.94287433209692 L-268.3314594691183,-151.60859223977042 L-267.0793151185467,-152.27470144543992 L-265.83219800884945,-152.94120038168597 L-264.59011107461356,-153.60808748017214 L-263.3530572385898,-154.2753611716487 L-262.1210394116856,-154.943019885956 L-260.8940604929576,-155.61106205202879 L-259.67212336960483,-156.2794860978995 L-258.4552309169644,-156.9482904507016 L-257.24338599850125,-157.61747353667383 L-256.0365914658041,-158.28703378116376 L-254.83485015857696,-158.95696960863128 L-253.6381649046334,-159.62727944265282 L-252.4465385198887,-160.29796170592482 L-251.25997380835452,-160.96901482026695 L-250.07847356213324,-161.64043720662642 L-248.9020405614092,-162.31222728508143 L-247.73067757444232,-162.9843834748449 L-246.5643873575632,-163.65690419426852 L-245.40317265516796,-164.3297878608444 "/>
			<path d="M-698.7355476707248,285.62461534116864 L-694.0688746140729,284.55979731443074 L-689.4182915207368,283.49207345186505 L-684.7838421637755,282.4214538032951 L-680.1655701643922,281.3479484458011 L-675.5635189915217,280.27156748362404 L-670.9777319614213,279.19232104807145 L-666.4082522372667,278.1102192974221 L-661.8551228287401,277.02527241682964 L-657.3183865916296,275.937490618227 L-652.7980862274253,274.8468841402312 L-648.2942642829148,273.75346324804565 L-643.8069631497858,272.65723823336396 L-639.3362250642263,271.5582194142738 L-634.8820921065249,270.45641713515874 L-630.4446062006771,269.3518417666012 L-626.0238091139915,268.2445037052857 L-621.6197424566933,267.13441337389946 L-617.2324476815345,266.0215812210353 L-612.8619660834056,264.9060177210938 L-608.5083387989434,263.7877333741831 L-604.1716068061451,262.66673870602125 L-599.8518109239853,261.54304426783744 L-595.5489918120275,260.41666063627144 L-591.2631899700427,259.28759841327474 L-586.9944457376321,258.1558682260113 L-582.742799293841,257.0214807267567 L-578.5082906567848,255.88444659279776 L-574.2909596832721,254.74477652633317 L-570.0908460684282,253.6024812543714 L-565.9079893453209,252.45757152863064 L-561.7424288845923,251.3100581254373 L-557.5942038940834,250.15995184562462 L-553.463353418467,249.00726351443086 L-549.3499163388815,247.8520039813975 L-545.2539313725629,246.69418412026715 L-541.1754370724825,245.5338148288817 L-537.1144718269811,244.37090702907858 L-533.07107385941,243.20547166658872 L-529.0452812277722,242.03751971093396 L-525.0371318243599,240.86706215532286 L-521.0466633754017,239.69411001654737 L-517.0739134407072,238.51867433488013 L-513.1189194133119,237.34076617396926 L-509.1817185191244,236.16039662073484 L-505.2623478165806,234.97757678526494 L-501.36084419628946,233.7923178007103 L-497.4772443806887,232.6046308231795 L-493.61158492369987,231.41452703163517 L-489.7639022103813,230.2220176277872 L-485.9342324565873,229.02711383598813 L-482.1226117086296,227.82982690312795 L-478.32907584293366,226.63016809852695 L-474.55366056570347,225.42814871383055 L-470.79640141258596,224.22378006290342 L-467.0573337483354,223.01707348172167 L-463.3364927664795,221.80804032826714 L-459.63391348899245,220.59669198242065 L-455.9496307659592,219.38303984585397 L-452.28367927525187,218.16709534192307 L-448.6360935222028,216.94886991556112 L-446.81919853295744,216.33890543888336 L-445.00690783927826,215.7283750331695 L-443.1992257056604,215.1172801350569 L-441.3961563857547,214.50562218251082 L-439.597704122358,213.8934026148214 L-437.8038731474019,213.2806228726008 L-436.01466768194405,212.66728439777864 L-434.2300919361569,212.05338863359944 L-432.45015010932025,211.43893702461938 L-430.6748463898091,210.82393101670266 L-428.90418495508493,210.20837205701767 L-427.13816997168465,209.5922615940339 L-425.37680559521164,208.97560107751897 L-423.62009597032716,208.35839195853467 L-421.8680452307385,207.74063568943356 L-420.1206574991909,207.12233372385612 L-418.3779368874557,206.50348751672638 L-416.63988749632244,205.88409852424905 L-414.9065134155901,205.26416820390642 L-413.17781872405476,204.6436980144545 L-411.4538074895024,204.0226894159195 L-409.7344837686983,203.40114386959485 L-408.0198516073767,202.77906283803708 L-406.3099150402322,202.15644778506277 L-404.60467809091165,201.53330017574547 L-402.90414477200216,200.90962147641164 L-401.20831908502237,200.28541315463758 L-399.5172050204151,199.6606766792459 L-397.83080655753383,199.03541352030174 L-396.1491276646375,198.4096251491095 L-394.47217229887883,197.78331303820983 L-392.7999444062957,197.15647866137564 L-391.1324479218024,196.52912349360878 L-389.46968676917913,195.9012490111367 L-387.8116648610637,195.2728566914086 L-386.1583860989408,194.64394801309209 L-384.50985437313557,194.01452445607018 L-382.86607356280274,193.38458750143738 L-381.2270475359169,192.75413863149612 L-379.59278014926576,192.12317932975373 L-377.96327524843696,191.49171108091818 L-376.33853666781283,190.85973537089507 L-374.718568230561,190.2272536867845 L-373.10337374862365,189.59426751687695 L-371.4929570227091,188.96077835065003 L-369.8873218422839,188.3267876787651 L-368.28647198556246,187.6922969930633 L-366.6904112194986,187.05730778656232 L-365.09914329977823,186.42182155345327 L-363.5126719708078,185.78583978909663 L-361.93100096570834,185.14936399001894 L-360.3541340063043,184.51239565390944 L-358.7820748031161,183.87493627961592 L-357.21482705535004,183.23698736714172 L-355.65239445089196,182.59855041764243 L-354.0947806662971,181.95962693342184 L-352.5419893667804,181.3202184179287 L-350.9940242062112,180.6803263757531 L-349.4508888270998,180.03995231262272 L-347.91258686059246,179.39909773539932 L-346.3791219264631,178.75776415207585 L-344.85049763310235,178.11595307177222 L-343.3267175775113,177.47366600473185 L-341.8077853452919,176.8309044623185 L-340.29370451063824,176.18766995701188 L-338.784478636328,175.5439640024048 L-337.2801112737161,174.89978811319975 L-335.7806059627237,174.25514380520474 L-334.28596623183194,173.6100325953302 L-332.7961955980736,172.96445600158523 L-331.3112975670215,172.31841554307377 L-329.8312756327841,171.6719127399912 L-328.3561332779964,171.02494911362132 L-326.88587397381116,170.37752618633215 L-325.42050117989083,169.72964548157225 L-323.96001834439767,169.08130852386725 L-322.5044289039897,168.43251683881687 L-321.05373628380994,167.7832719530906 L-319.60794389747707,167.1335753944244 L-318.167055147082,166.4834286916172 L-316.73107342317417,165.83283337452679 L-315.3000021047569,165.1817909740666 L-313.87384455927986,164.53030302220247 L-312.45260414262884,163.87837105194856 L-311.03628419912,163.2259965973637 L-309.62488806149213,162.57318119354818 L-308.2184190508956,161.91992637663958 L-306.8168804768875,161.26623368380933 L-305.4202756374243,160.61210465325968 L-304.0286078188519,159.95754082421945 L-302.6418802958983,159.30254373694055 L-301.26009633166905,158.64711493269462 L-299.88325917763405,157.99125595376867 L-298.511372073624,157.33496834346212 L-297.1444382478221,156.67825364608328 L-295.78246091675555,156.0211134069453 L-294.425443285289,155.36354917236253 L-293.0733885466161,154.70556248964743 L-291.7262998822516,154.047154907106 L-290.3841804620256,153.3883279740347 L-289.04703344407426,152.72908324071713 L-287.71486197483455,152.06942225841982 L-286.38766918903366,151.40934657938877 L-285.0654582096854,150.74885775684604 L-283.74823214807975,150.0879573449854 L-282.435994103776,149.42664689896918 L-281.12874716459737,148.76492797492497 L-279.8264944066227,148.10280212994127 L-278.52923889417843,147.44027092206417 L-277.23698367983206,146.7773359102938 L-275.94973180438456,146.11399865458006 L-274.6674862968639,145.45026071581944 L-273.39025017451786,144.78612365585155 L-272.1180264428067,144.12158903745512 L-270.85081809539497,143.45665842434428 L-269.58862811414747,142.79133338116512 L-268.3314594691183,142.12561547349162 L-267.0793151185467,141.45950626782212 L-265.83219800884945,140.79300733157606 L-264.59011107461356,140.1261202330899 L-263.3530572385898,139.45884654161333 L-262.1210394116856,138.79118782730603 L-260.8940604929576,138.12314566123325 L-259.67212336960483,137.45472161536253 L-258.4552309169644,136.78591726256045 L-257.24338599850125,136.1167341765882 L-256.0365914658041,135.44717393209828 L-254.83485015857696,134.77723810463075 L-253.6381649046334,134.10692827060922 L-252.4465385198887,133.43624600733722 L-251.25997380835452,132.7651928929951 L-250.07847356213324,132.09377050663562 L-248.9020405614092,131.4219804281806 L-247.73067757444232,130.74982423841715 L-246.5643873575632,130.07730351899352 L-245.40317265516796,129.40441985241765 "/>

       </g>
    </g>
    <g transform="translate(20,210.0)" stroke="rgb(0,0,255)">
        <line x1="30" y1="-30" x2="75" y2="-33" stroke-width="3" stroke="#000000"/>
         <text x="80" y="-30" style="stroke:#000000">X </text>

        <line x1="30" y1="-30" x2="30" y2="-75" stroke-width="3" stroke="#000000"/>
         <text x="25" y="-85" style="stroke:#000000">Y </text>

        <line x1="30" y1="-30" x2="58" y2="-15" stroke-width="3" stroke="#000000"/>
         <text x="65" y="-5" style="stroke:#000000">Z </text>
        <!--
            <line x1="0" y1="0" x2="0.34588247614990997" y2="0" stroke-width="3" />
            <text x="0" y="20" style="stroke:#000000">1  mm </text>
        -->
    </g>
</svg>