<svg xmlns:svg="http://www.w3.org/2000/svg" xmlns="http://www.w3.org/2000/svg" width="800.0" height="240.0">
    <g transform="scale(0.25932445748325506, -0.25932445748325506)   translate(1328.1110524778605,-520.1278554320248)" stroke-width="3.8561731111095505" fill="none">
       <!-- hidden lines -->
       <g stroke="rgb(160,160,160)" fill="none" stroke-dasharray="3.8561731111095505,3.8561731111095505">
			<path d="M-103.82441920026201,-26.970339131385487 L-103.82441920026201,443.0043932098338 "/>
			<path d="M226.52600552784418,-218.86796555133395 L-103.82441920026201,-26.970339131385458 "/>
			<path d="M-103.82441920026201,-26.970339131385487 L-556.8764302559505,-59.20914036993683 "/>

       </g>

       <!-- solid lines -->
       <g stroke="rgb(0,0,0)" fill="none">
			<path d="M226.52600552784418,-218.86796555133395 L226.52600552784418,251.10676678988528 "/>
			<path d="M-226.52600552784418,-251.10676678988528 L226.52600552784423,-218.86796555133395 "/>
			<path d="M-226.52600552784418,-251.10676678988528 L-226.52600552784418,218.86796555133395 "/>
			<path d="M226.52600552784418,251.10676678988528 L-226.52600552784423,218.86796555133395 "/>
			<path d="M226.52600552784418,251.10676678988528 L-103.82441920026201,443.0043932098338 "/>
			<path d="M-556.8764302559504,-59.20914036993682 L-556.8764302559504,410.76559197128245 "/>
			<path d="M-103.82441920026201,443.0043932098338 L-556.8764302559505,410.76559197128245 "/>
			<path d="M-556.8764302559504,-59.20914036993682 L-226.52600552784418,-251.1067667898853 "/>
			<path d="M-556.8764302559504,410.76559197128245 L-226.52600552784418,218.86796555133395 "/>

       </g>
    </g>
    <g transform="translate(20,210.0)" stroke="rgb(0,0,255)">
        <line x1="30" y1="-30" x2="75" y2="-33" stroke-width="3" stroke="#000000"/>
         <text x="80" y="-30" style="stroke:#000000">X </text>

        <line x1="30" y1="-30" x2="30" y2="-75" stroke-width="3" stroke="#000000"/>
         <text x="25" y="-85" style="stroke:#000000">Y </text>

        <line x1="30" y1="-30" x2="58" y2="-15" stroke-width="3" stroke="#000000"/>
         <text x="65" y="-5" style="stroke:#000000">Z </text>
        <!--
            <line x1="0" y1="0" x2="0.25932445748325506" y2="0" stroke-width="3" />
            <text x="0" y="20" style="stroke:#000000">1  mm </text>
        -->
    </g>
</svg>