<svg xmlns:svg="http://www.w3.org/2000/svg" xmlns="http://www.w3.org/2000/svg" width="800.0" height="240.0">
    <g transform="scale(0.25934810998166896, -0.25934810998166896)   translate(1112.5512651078916,-337.1164285770718)" stroke-width="3.855821428853602" fill="none">
       <!-- hidden lines -->
       <g stroke="rgb(160,160,160)" fill="none" stroke-dasharray="3.855821428853602,3.855821428853602">
			<path d="M0.0,-260.0 L1.262177448353619e-29,259.9999999999998 "/>
			<path d="M2.524354896707238e-29,259.99999999999955 L-4.730048238079909,259.9960139784562 L-9.460083040054592,259.9840559251488 L-14.190090969856994,259.9641258740453 L-18.920058591496392,259.9362238817589 L-23.64997246909655,259.9003500275471 L-28.379819166933913,259.85650441331336 L-33.10958524947575,259.8046871636043 L-37.83925728141833,259.7448984256116 L-42.56882182772505,259.67713836916937 L-47.29826545366468,259.6014071867571 L-52.02757472484945,259.5177050934949 L-56.756736207273214,259.426032327146 L-61.48573646734966,259.32638914811423 L-66.21456207195045,259.21877583944524 L-70.94319958844332,259.1031927068234 L-75.67163558473035,258.97964007857263 L-80.39985662928602,258.8481183056542 L-85.12784929119539,258.70862776166723 L-89.85560014019228,258.5611688428471 L-94.58309574669741,258.405741968063 L-99.3103226818565,258.24234757881777 L-104.03726751757853,258.07098613924745 L-108.76391682657368,257.8916581361186 L-113.49025718239173,257.70436407882835 L-118.21627515946,257.509104499401 L-122.94195733312152,257.3058799524879 L-127.66729027967331,257.0946910153657 L-132.3922605764043,256.8755382879349 L-137.11685480163362,256.6484223927173 L-141.84105953474858,256.4133439748548 L-146.56486135624297,256.1703037021084 L-151.28824684775503,255.9193022648533 L-156.01120259210563,255.66034037608188 L-160.7337151733364,255.39341877139714 L-165.4557711767478,255.11853820901206 L-170.1773571889372,254.83569946974876 L-174.89845979783703,254.54490335703485 L-179.61906559275297,254.24615069690162 L-184.3391611644018,253.93944233798084 L-189.05873310494968,253.6247791515043 L-193.7777680080502,253.3021620312993 L-198.4962524688825,252.97159189378726 L-203.21417308418924,252.63306967798098 L-207.9315164523147,252.28659634548148 L-212.648269173243,251.93217288047617 L-217.36441784863584,251.5698002897352 L-222.079949081871,251.19947960260833 L-226.79484947808004,250.82121187102348 L-231.50910564418643,250.43499816948133 L-236.22270418894368,250.04083959505624 L-240.93563172297328,249.63873726738848 L-245.6478748588029,249.2286923286838 L-250.35942021090423,248.81070594371067 L-255.070254395731,248.38477929979445 L-259.7803640317572,247.9509136068159 L-264.4897357395149,247.50911009720767 L-269.1983561416323,247.05937002595056 L-273.90621186287177,246.6016946705695 L-278.61328953016783,246.13608533112983 L-283.31957577266513,245.66254333023517 L-288.0250572217564,245.18107001302178 L-292.7297205111205,244.69166674715598 L-297.4335522767602,244.1943349228286 L-302.1365391570406,243.68907595275368 L-306.8386677927265,243.17589127216252 L-311.53992482702057,242.65478233879958 L-316.2402969056016,242.12575063291888 L-320.93977067666196,241.5887976572808 L-325.63833279094575,241.04392493714613 L-330.3359699017869,240.49113402027206 L-335.0326686651467,239.930426476908 L-339.72841573965184,239.36180389979108 L-344.4231977866326,238.7852679041439 L-349.1170014701604,238.20082012766443 L-353.8098134570857,237.60846223052704 L-358.50162041707597,237.00819589537468 L-363.1924090226537,236.40002282731575 L-367.8821659492339,235.78394475391633 L-372.5708778751624,235.15996342519975 L-377.2585314817532,234.52808061363794 L-381.94511345332654,233.8882981141478 L-386.63061047724705,233.24061774408665 L-391.3150092439608,232.58504134324448 L-395.9982964470339,231.9215707738431 L-400.68045878318986,231.25020792052646 L-405.36148295234744,230.57095469035858 L-410.0413556576584,229.88381301281606 L-414.7200636055454,229.18878483978324 L-419.3975935057397,228.48587214554664 L-424.07393207131884,227.77507692679 L-428.7490660187447,227.05640120258795 L-433.42298206790053,226.32984701439955 L-438.0956669421295,225.59541642606473 L-442.7671073682719,224.85311152379518 L-447.437290076703,224.10293441617205 L-452.1062018013707,223.34488723413688 L-456.7738292798332,222.57897213098795 L-461.4401592532968,221.80519128237165 L-466.1051784666535,221.02354688627884 L-470.7688736685185,220.23404116303664 L-475.43123161126806,219.43667635530392 L-480.092239051077,218.6314547280631 L-484.7518827479563,217.81837856861466 L-489.410149465791,216.9974501865713 L-494.0670259723772,216.16867191384972 L-498.7224990394605,215.3320461046651 L-503.3765554427725,214.48757513552482 L-508.0291819620694,213.63526140522026 L-512.6803653811689,212.7751073348213 L-517.3300924879882,211.90711536766912 L-521.9783500745808,211.03128796936835 L-526.6251249371751,210.14762762778219 L-531.2704038762108,209.25613685302233 L-535.9141736963772,208.3568181774449 L-540.5564212066503,207.44967415564088 L-545.1971332203301,206.53470736443023 L-549.8362965550788,205.6119204028546 L-554.4738980329573,204.68131589216864 L-559.1099244804634,203.74289647583373 L-563.7443627285688,202.79666481951017 L-568.3771996127565,201.84262361104993 L-573.0084219730585,200.88077556048802 L-577.6380166540928,199.9111234000361 L-582.2659705051012,198.93366988407388 L-586.8922703799863,197.94841778914133 L-591.5169031373487,196.95536991393055 L-596.1398556405251,195.95452907927938 L-600.7611147576248,194.94589812816093 L-605.3806673615672,193.9294799256777 L-609.9985003301196,192.90527735905243 L-614.6146005459334,191.8732933376191 L-619.2289548965828,190.83353079281687 L-623.8415502746009,189.7859926781798 L-628.4523735775172,188.73068196932945 L-633.0614117078951,187.66760166396534 L-637.668651573369,186.59675478185818 L-642.2740800866812,185.51814436483937 L-646.8776841657194,184.4317734767942 L-651.479450733554,183.33764520365094 L-656.0793667184746,182.23576265337533 L-660.6774190540278,181.12612895595794 L-665.2735946790541,180.00874726340817 L-669.8678805377245,178.88362074974384 L-674.4602635795789,177.750752610983 L-679.0507307595614,176.61014606513345 L-683.6392690380587,175.4618043521864 L-688.2258653809369,174.30573073410324 L-692.810506759578,173.1419284948106 L-697.3931801509171,171.97040094018712 L-701.9738725374802,170.79115139805708 L-706.55257090742,169.60418321817951 L-711.1292622545533,168.40949977223863 L-715.7039335783983,167.2071044538343 L-720.2765718842112,165.99700067847334 L-724.847164183023,164.77919188355827 L-729.4156974916768,163.553681528379 L-733.9821588328642,162.320473094102 L-738.5465352351624,161.07957008376115 L-743.1088137330714,159.8309760222469 L-747.6689813670502,158.57469445629795 L-752.2270251835536,157.31072895448824 L-756.7829322350699,156.03908310722 L-761.3366895801566,154.7597605267115 L-765.8882842834779,153.4727648469875 L-770.4377034158409,152.17809972386885 L-774.9849340542329,150.87576883496286 L-779.5299632818578,149.56577587965057 L-784.0727781881723,148.2481245790791 L-788.6133658689234,146.9228186761493 L-793.1517134261852,145.58986193550572 L-797.687807968394,144.24925814352537 L-802.2216366103872,142.90101110830756 L-806.7531864734376,141.54512465966263 L-811.2824446852917,140.1816026491024 L-815.8093983802054,138.81044894982642 L-820.3340346989809,137.43166745671442 L-824.8563407890032,136.0452620863125 L-829.376303804276,134.65123677682323 L-833.8939109054592,133.24959548809466 L-838.4091492599048,131.84034220160765 L-842.9220060416934,130.42348092046723 L-847.4324684316705,128.99901566938797 L-851.9405236174832,127.56695049468499 L-856.4461587936166,126.1272894642616 L-860.9493611614298,124.6800366675975 L-865.4501179291926,123.22519621573747 L-869.9484163121219,121.76277224128035 L-874.4442435324173,120.29276889836592 L-878.9375868192989,118.815190362664 L-883.4284334090418,117.33004083136211 L-887.9167705450132,115.83732452315371 L-892.4025854777092,114.33704567822815 L-896.8858654647898,112.82920855825387 L-901.3665977711164,111.31381744637156 L-905.8447696687869,109.79087664717918 L-910.320368437172,108.26039048671873 L-914.7933813629519,106.72236331246722 L-919.2637957401523,105.17679949332205 L-923.73159887018,103.62370341958922 L-928.1967780618594,102.06307950297014 L-932.6593206314684,100.49493217654981 L-937.1192139027744,98.91926589478498 L-941.5764452070703,97.33608513348963 L-946.0310018832107,95.74539438982401 L-950.4828712776475,94.14719818228059 L-954.9320407444666,92.5415010506722 L-959.3784976454224,90.92830755611749 L-963.8222293499753,89.3076222810314 L-968.2632232353264,87.6794498291074 L-972.7014666864544,86.04379482530885 L-977.13694709615,84.4006619158531 L-981.5696518650534,82.75005576819922 L-985.9995684016884,81.09198107103475 L-990.4266841224999,79.42644253426215 L-994.8509864518878,77.75344488898509 L-999.2724628222448,76.0729928874971 L-1003.69110067399,74.38509130326429 L-1008.106887455606,72.68974493091582 L-1012.5198106236741,70.98695858622659 L-1016.9298576429097,69.27673710610725 L-1021.3370159861984,67.55908534858736 L-1025.7412731346312,65.83400819280314 L-1030.1426165775401,64.10151053898335 L-1034.5410338125348,62.36159730843565 L-1038.936512345535,60.61427344353115 L-1043.3290396908096,58.85954390769257 L-1047.7186033710104,57.0974136853788 L-1052.105190917208,55.327887782070775 L-1056.4887898689253,53.550971224257864 L-1060.869387774177,51.76666905942284 L-1065.2469721895013,49.97498635602824 L-1069.6215306799959,48.175928203501826 L-1073.9930508193547,46.36949971222066 "/>
			<path d="M-1073.9930508193556,46.36949971222066 L-874.9976659895094,-434.0478571936487 "/>
			<path d="M-874.9976659895093,-434.0478571936487 L-871.0459012427095,-432.4153098001557 L-867.0910905506307,-430.79015503956543 L-863.1332477427817,-429.1723985948529 L-859.1723866592743,-427.5620461231224 L-855.2085211507749,-425.95910325558725 L-851.2416650784561,-424.36357559755197 L-847.2718323139472,-422.7754687283882 L-843.2990367392886,-421.19478820151926 L-839.3232922468791,-419.6215395444001 L-835.3446127394309,-418.05572825849686 L-831.3630121299193,-416.4973598192664 L-827.3785043415343,-414.94643967614184 L-823.391103307632,-413.4029732525082 L-819.4008229716858,-411.86696594568593 L-815.4076772872373,-410.33842312691286 L-811.4116802178489,-408.81735014132346 L-807.4128457370529,-407.3037523079315 L-803.4111878283043,-405.7976349196115 L-799.4067204849309,-404.299003243078 L-795.3994577100851,-402.80786251887184 L-791.3894135166948,-401.32421796133576 L-787.3766019274134,-399.8480747586009 L-783.3610369745722,-398.3794380725667 L-779.3427327001305,-396.9183130388842 L-775.321703155627,-395.4647047669346 L-771.2979624021294,-394.01861833981684 L-767.2715245101875,-392.5800588143243 L-763.2424035597817,-391.14903122093165 L-759.210613640275,-389.72554056377385 L-755.1761688503635,-388.3095918206309 L-751.1390832980275,-386.90118994290924 L-747.099371100481,-385.5003398556246 L-743.0570463841232,-384.10704645738633 L-739.0121232844893,-382.7213146203776 L-734.9646159462012,-381.34314919033886 L-730.9145385229162,-379.97255498655386 L-726.86190517728,-378.60953680183 L-722.8067300808759,-377.25409940248073 L-718.749027414175,-375.90624752831263 L-714.6888113664871,-374.5659858926051 L-710.6260961359118,-373.23331918209533 L-706.5608959292865,-371.9082520569632 L-702.49322496214,-370.59078915081227 L-698.4230974586399,-369.28093507065523 L-694.350527651544,-367.9786943969002 L-690.2755297821517,-366.68407168332715 L-686.1981181002515,-365.39707145708235 L-682.118306864074,-364.11769821865255 L-678.03611034024,-362.8459564418563 L-673.9515428037115,-361.5818505738257 L-669.8646185377419,-360.3253850349911 L-665.7753518338258,-359.0765642190636 L-661.6837569916485,-357.83539249302476 L-657.5898483190371,-356.60187419710473 L-653.49364013191,-355.37601364477314 L-649.395146754226,-354.1578151227204 L-645.2943825179356,-352.9472828908438 L-641.1913617629299,-351.74442118223214 L-637.0860988369913,-350.5492342031512 L-632.9786080957418,-349.3617261330305 L-628.868903902595,-348.1819011244461 L-624.7570006287036,-347.0097633031073 L-620.6429126529108,-345.8453167678431 L-616.5266543616999,-344.6885655905853 L-612.4082401491422,-343.5395138163585 L-608.2876844168494,-342.3981654632603 L-604.1650015739209,-341.2645245224535 L-600.0402060368949,-340.13859495814586 L-595.9133122296972,-339.02038070758135 L-591.7843345835912,-337.90988568102466 L-587.6532875371267,-336.8071137617462 L-583.5201855360908,-335.7120688060095 L-579.3850430334559,-334.6247546430591 L-575.24787448933,-333.545175075104 L-571.1086943709058,-332.4733338773076 L-566.9675171524106,-331.409234797773 L-562.8243573150545,-330.35288155753005 L-558.6792293469817,-329.3042778505219 L-554.5321477432179,-328.26342734359196 L-550.3831270056211,-327.2303336764726 L-546.2321816428295,-326.2050004617713 L-542.0793261702116,-325.18743128495817 L-537.9245751098161,-324.17762970435297 L-533.7679429903195,-323.175599251113 L-529.6094443469765,-322.1813434292212 L-525.4490937215687,-321.19486571547395 L-521.2869056623539,-320.21616955946774 L-517.1228947240155,-319.24525838358795 L-512.9570754676105,-318.2821355829974 L-508.7894624605202,-317.3268045256241 L-504.62007027639817,-316.37926855214664 L-500.44891349511937,-315.4395309759889 L-496.2760067027295,-314.50759508330157 L-492.1013644913939,-313.58346413295703 L-487.9250014593462,-312.6671413565309 L-483.74693221083805,-311.75862995829675 L-479.567171356087,-310.85793311521275 L-475.385733511226,-309.96505397691 L-471.20263329825286,-309.0799956656815 L-467.0178853449777,-308.20276127647276 L-462.83150428497277,-307.33335387686975 L-458.64350475752195,-306.4717765070868 L-454.4539014075674,-305.61803217996066 L-450.2627088856603,-304.77212388093403 L-446.06994184790926,-303.9340545680493 L-441.87561495592854,-303.10382717193534 L-437.6797428767865,-302.281444595802 L-433.4823402829558,-301.4669097154224 L-429.28342185226046,-300.66022537913113 L-425.08300226782535,-299.8613944078079 L-420.88109621802505,-299.0704195948697 L-416.67771839643126,-298.28730370626545 L-412.47288350176314,-297.51204948045734 L-408.26660623783505,-296.74465962841805 L-404.0589013135045,-295.9851368336217 L-399.8497834426219,-295.23348375202886 L-395.6392673439782,-294.48970301208374 L-391.4273677412544,-293.7537972146979 L-387.2140993629687,-293.02576893324976 L-382.99947694242616,-292.3056207135669 L-378.7835152176667,-291.5933550739246 L-374.56622893141383,-290.888974505031 L-370.3476328310225,-290.1924814700237 L-366.1277416684281,-289.5038784044559 L-361.9065702000951,-288.8231677162921 L-357.68413318696395,-288.1503517858978 L-353.4604453944018,-287.4854329660311 L-349.2355215921491,-286.8284135818353 L-345.0093765542681,-286.17929593083045 L-340.78202505909246,-285.5380822829038 L-336.553481889174,-284.90477488030456 L-332.3237618312319,-284.27937593763454 L-328.09287967610055,-283.6618876418406 L-323.86085021867837,-283.05231215220647 L-319.6276882578758,-282.45065160034665 L-315.39340859656306,-281.85690809019707 L-311.1580260415194,-281.2710836980091 L-306.92155540338035,-280.69318047234174 L-302.6840114965862,-280.12320043405543 L-298.44540913933133,-279.5611455763019 L-294.20576315351036,-279.0070178645228 L-289.9650883646674,-278.4608192364367 L-285.7233996019446,-277.9225516020365 L-281.48071169802984,-277.3922168435806 L-277.2370394891045,-276.8698168155879 L-272.9923978147925,-276.35535334482984 L-268.7468015181074,-275.8488282303242 L-264.50026544540117,-275.35024324333017 L-260.252804446312,-274.8596001273413 L-256.00443337371235,-274.3769005980789 L-251.7551670836575,-273.90214634348604 L-247.50502043533254,-273.4353390237229 L-243.2540082910018,-272.9764802711602 L-239.0021455159556,-272.52557169037345 L-234.74944697845888,-272.0826148581359 L-230.4959275496998,-271.64761132341573 L-226.2416021037361,-271.22056260737054 L-221.98648551744452,-270.8014702033379 L-217.73059267046835,-270.39033557683615 L-213.47393844516546,-269.9871601655541 L-209.216537726556,-269.59194537934945 L-204.9584054022706,-269.20469260024083 L-200.69955636249824,-268.8254031824067 L-196.44000549993405,-268.4540784521769 L-192.17976770972746,-268.09071970803143 L-187.91885788943023,-267.7353282205918 L-183.65729093894333,-267.38790523262196 L-179.39508176046672,-267.04845195901817 L-175.1322452584452,-266.7169695868088 L-170.8687963395182,-266.3934592751493 L-166.60474991246554,-266.0779221553171 L-162.3401208881578,-265.77035933070783 L-158.0749241795014,-265.47077187683317 L-153.8091747013891,-265.1791608413155 L-149.5428873706461,-264.8955272438834 L-145.27607710597817,-264.6198720763714 L-141.00875882792013,-264.35219630271285 L-136.74094745878324,-264.0925008589388 L-132.47265792260316,-263.8407866531729 L-128.20390514508654,-263.59705456563097 L-123.93470405356163,-263.361305448615 L-119.66506957692354,-263.13354012651234 L-115.39501664558225,-262.91375939579166 L-111.12456019141246,-262.7019640249996 L-106.85371514769838,-262.4981547547609 L-102.58249644908426,-262.30233229777195 L-98.31091903152083,-262.11449733880045 L-94.03899783221243,-261.9346505346848 L-89.76674778956624,-261.7627925143265 L-85.49418384313924,-261.5989238786933 L-81.22132093358618,-261.44304520081505 L-76.94817400260706,-261.295157025781 L-72.67475799289514,-261.1552598707385 L-68.40108784808467,-261.02335422489114 L-64.12717851269838,-260.89944054949865 L-59.85304493209571,-260.7835192778716 L-55.57870205242011,-260.67559081537365 L-51.304164820546816,-260.57565553941777 L-47.0294481840308,-260.48371379946593 L-42.75456709105481,-260.39976591702725 L-38.47953649037572,-260.32381218565797 L-34.20437133127405,-260.2558528709592 L-29.92908656350039,-260.19588821057687 L-25.65369713722407,-260.14391841420047 L-21.37821800297968,-260.09994366356204 L-17.10266411161649,-260.0639641124362 L-12.827050414244127,-260.03597988663887 L-8.551391862182186,-260.015991084028 L-4.275703406906359,-260.00399777450184 L2.1600499167107046e-12,-260.0 "/>

       </g>

       <!-- solid lines -->
       <g stroke="rgb(0,0,0)" fill="none">
			<path d="M1.262177448353619e-29,259.9999999999998 L0.0,-260.0 "/>
			<path d="M2.524354896707238e-29,259.99999999999955 L-4.730048238079909,259.9960139784562 L-9.460083040054592,259.9840559251488 L-14.190090969856994,259.9641258740453 L-18.920058591496392,259.9362238817589 L-23.64997246909655,259.9003500275471 L-28.379819166933913,259.85650441331336 L-33.10958524947575,259.8046871636043 L-37.83925728141833,259.7448984256116 L-42.56882182772505,259.67713836916937 L-47.29826545366468,259.6014071867571 L-52.02757472484945,259.5177050934949 L-56.756736207273214,259.426032327146 L-61.48573646734966,259.32638914811423 L-66.21456207195045,259.21877583944524 L-70.94319958844332,259.1031927068234 L-75.67163558473035,258.97964007857263 L-80.39985662928602,258.8481183056542 L-85.12784929119539,258.70862776166723 L-89.85560014019228,258.5611688428471 L-94.58309574669741,258.405741968063 L-99.3103226818565,258.24234757881777 L-104.03726751757853,258.07098613924745 L-108.76391682657368,257.8916581361186 L-113.49025718239173,257.70436407882835 L-118.21627515946,257.509104499401 L-122.94195733312152,257.3058799524879 L-127.66729027967331,257.0946910153657 L-132.3922605764043,256.8755382879349 L-137.11685480163362,256.6484223927173 L-141.84105953474858,256.4133439748548 L-146.56486135624297,256.1703037021084 L-151.28824684775503,255.9193022648533 L-156.01120259210563,255.66034037608188 L-160.7337151733364,255.39341877139714 L-165.4557711767478,255.11853820901206 L-170.1773571889372,254.83569946974876 L-174.89845979783703,254.54490335703485 L-179.61906559275297,254.24615069690162 L-184.3391611644018,253.93944233798084 L-189.05873310494968,253.6247791515043 L-193.7777680080502,253.3021620312993 L-198.4962524688825,252.97159189378726 L-203.21417308418924,252.63306967798098 L-207.9315164523147,252.28659634548148 L-212.648269173243,251.93217288047617 L-217.36441784863584,251.5698002897352 L-222.079949081871,251.19947960260833 L-226.79484947808004,250.82121187102348 L-231.50910564418643,250.43499816948133 L-236.22270418894368,250.04083959505624 L-240.93563172297328,249.63873726738848 L-245.6478748588029,249.2286923286838 L-250.35942021090423,248.81070594371067 L-255.070254395731,248.38477929979445 L-259.7803640317572,247.9509136068159 L-264.4897357395149,247.50911009720767 L-269.1983561416323,247.05937002595056 L-273.90621186287177,246.6016946705695 L-278.61328953016783,246.13608533112983 L-283.31957577266513,245.66254333023517 L-288.0250572217564,245.18107001302178 L-292.7297205111205,244.69166674715598 L-297.4335522767602,244.1943349228286 L-302.1365391570406,243.68907595275368 L-306.8386677927265,243.17589127216252 L-311.53992482702057,242.65478233879958 L-316.2402969056016,242.12575063291888 L-320.93977067666196,241.5887976572808 L-325.63833279094575,241.04392493714613 L-330.3359699017869,240.49113402027206 L-335.0326686651467,239.930426476908 L-339.72841573965184,239.36180389979108 L-344.4231977866326,238.7852679041439 L-349.1170014701604,238.20082012766443 L-353.8098134570857,237.60846223052704 L-358.50162041707597,237.00819589537468 L-363.1924090226537,236.40002282731575 L-367.8821659492339,235.78394475391633 L-372.5708778751624,235.15996342519975 L-377.2585314817532,234.52808061363794 L-381.94511345332654,233.8882981141478 L-386.63061047724705,233.24061774408665 L-391.3150092439608,232.58504134324448 L-395.9982964470339,231.9215707738431 L-400.68045878318986,231.25020792052646 L-405.36148295234744,230.57095469035858 L-410.0413556576584,229.88381301281606 L-414.7200636055454,229.18878483978324 L-419.3975935057397,228.48587214554664 L-424.07393207131884,227.77507692679 L-428.7490660187447,227.05640120258795 L-433.42298206790053,226.32984701439955 L-438.0956669421295,225.59541642606473 L-442.7671073682719,224.85311152379518 L-447.437290076703,224.10293441617205 L-452.1062018013707,223.34488723413688 L-456.7738292798332,222.57897213098795 L-461.4401592532968,221.80519128237165 L-466.1051784666535,221.02354688627884 L-470.7688736685185,220.23404116303664 L-475.43123161126806,219.43667635530392 L-480.092239051077,218.6314547280631 L-484.7518827479563,217.81837856861466 L-489.410149465791,216.9974501865713 L-494.0670259723772,216.16867191384972 L-498.7224990394605,215.3320461046651 L-503.3765554427725,214.48757513552482 L-508.0291819620694,213.63526140522026 L-512.6803653811689,212.7751073348213 L-517.3300924879882,211.90711536766912 L-521.9783500745808,211.03128796936835 L-526.6251249371751,210.14762762778219 L-531.2704038762108,209.25613685302233 L-535.9141736963772,208.3568181774449 L-540.5564212066503,207.44967415564088 L-545.1971332203301,206.53470736443023 L-549.8362965550788,205.6119204028546 L-554.4738980329573,204.68131589216864 L-559.1099244804634,203.74289647583373 L-563.7443627285688,202.79666481951017 L-568.3771996127565,201.84262361104993 L-573.0084219730585,200.88077556048802 L-577.6380166540928,199.9111234000361 L-582.2659705051012,198.93366988407388 L-586.8922703799863,197.94841778914133 L-591.5169031373487,196.95536991393055 L-596.1398556405251,195.95452907927938 L-600.7611147576248,194.94589812816093 L-605.3806673615672,193.9294799256777 L-609.9985003301196,192.90527735905243 L-614.6146005459334,191.8732933376191 L-619.2289548965828,190.83353079281687 L-623.8415502746009,189.7859926781798 L-628.4523735775172,188.73068196932945 L-633.0614117078951,187.66760166396534 L-637.668651573369,186.59675478185818 L-642.2740800866812,185.51814436483937 L-646.8776841657194,184.4317734767942 L-651.479450733554,183.33764520365094 L-656.0793667184746,182.23576265337533 L-660.6774190540278,181.12612895595794 L-665.2735946790541,180.00874726340817 L-669.8678805377245,178.88362074974384 L-674.4602635795789,177.750752610983 L-679.0507307595614,176.61014606513345 L-683.6392690380587,175.4618043521864 L-688.2258653809369,174.30573073410324 L-692.810506759578,173.1419284948106 L-697.3931801509171,171.97040094018712 L-701.9738725374802,170.79115139805708 L-706.55257090742,169.60418321817951 L-711.1292622545533,168.40949977223863 L-715.7039335783983,167.2071044538343 L-720.2765718842112,165.99700067847334 L-724.847164183023,164.77919188355827 L-729.4156974916768,163.553681528379 L-733.9821588328642,162.320473094102 L-738.5465352351624,161.07957008376115 L-743.1088137330714,159.8309760222469 L-747.6689813670502,158.57469445629795 L-752.2270251835536,157.31072895448824 L-756.7829322350699,156.03908310722 L-761.3366895801566,154.7597605267115 L-765.8882842834779,153.4727648469875 L-770.4377034158409,152.17809972386885 L-774.9849340542329,150.87576883496286 L-779.5299632818578,149.56577587965057 L-784.0727781881723,148.2481245790791 L-788.6133658689234,146.9228186761493 L-793.1517134261852,145.58986193550572 L-797.687807968394,144.24925814352537 L-802.2216366103872,142.90101110830756 L-806.7531864734376,141.54512465966263 L-811.2824446852917,140.1816026491024 L-815.8093983802054,138.81044894982642 L-820.3340346989809,137.43166745671442 L-824.8563407890032,136.0452620863125 L-829.376303804276,134.65123677682323 L-833.8939109054592,133.24959548809466 L-838.4091492599048,131.84034220160765 L-842.9220060416934,130.42348092046723 L-847.4324684316705,128.99901566938797 L-851.9405236174832,127.56695049468499 L-856.4461587936166,126.1272894642616 L-860.9493611614298,124.6800366675975 L-865.4501179291926,123.22519621573747 L-869.9484163121219,121.76277224128035 L-874.4442435324173,120.29276889836592 L-878.9375868192989,118.815190362664 L-883.4284334090418,117.33004083136211 L-887.9167705450132,115.83732452315371 L-892.4025854777092,114.33704567822815 L-896.8858654647898,112.82920855825387 L-901.3665977711164,111.31381744637156 L-905.8447696687869,109.79087664717918 L-910.320368437172,108.26039048671873 L-914.7933813629519,106.72236331246722 L-919.2637957401523,105.17679949332205 L-923.73159887018,103.62370341958922 L-928.1967780618594,102.06307950297014 L-932.6593206314684,100.49493217654981 L-937.1192139027744,98.91926589478498 L-941.5764452070703,97.33608513348963 L-946.0310018832107,95.74539438982401 L-950.4828712776475,94.14719818228059 L-954.9320407444666,92.5415010506722 L-959.3784976454224,90.92830755611749 L-963.8222293499753,89.3076222810314 L-968.2632232353264,87.6794498291074 L-972.7014666864544,86.04379482530885 L-977.13694709615,84.4006619158531 L-981.5696518650534,82.75005576819922 L-985.9995684016884,81.09198107103475 L-990.4266841224999,79.42644253426215 L-994.8509864518878,77.75344488898509 L-999.2724628222448,76.0729928874971 L-1003.69110067399,74.38509130326429 L-1008.106887455606,72.68974493091582 L-1012.5198106236741,70.98695858622659 L-1016.9298576429097,69.27673710610725 L-1021.3370159861984,67.55908534858736 L-1025.7412731346312,65.83400819280314 L-1030.1426165775401,64.10151053898335 L-1034.5410338125348,62.36159730843565 L-1038.936512345535,60.61427344353115 L-1043.3290396908096,58.85954390769257 L-1047.7186033710104,57.0974136853788 L-1052.105190917208,55.327887782070775 L-1056.4887898689253,53.550971224257864 L-1060.869387774177,51.76666905942284 L-1065.2469721895013,49.97498635602824 L-1069.6215306799959,48.175928203501826 L-1073.9930508193547,46.36949971222066 "/>
			<path d="M-1073.9930508193556,46.36949971222066 L-874.9976659895094,-434.0478571936487 "/>
			<path d="M-874.9976659895093,-434.0478571936487 L-871.0459012427095,-432.4153098001557 L-867.0910905506307,-430.79015503956543 L-863.1332477427817,-429.1723985948529 L-859.1723866592743,-427.5620461231224 L-855.2085211507749,-425.95910325558725 L-851.2416650784561,-424.36357559755197 L-847.2718323139472,-422.7754687283882 L-843.2990367392886,-421.19478820151926 L-839.3232922468791,-419.6215395444001 L-835.3446127394309,-418.05572825849686 L-831.3630121299193,-416.4973598192664 L-827.3785043415343,-414.94643967614184 L-823.391103307632,-413.4029732525082 L-819.4008229716858,-411.86696594568593 L-815.4076772872373,-410.33842312691286 L-811.4116802178489,-408.81735014132346 L-807.4128457370529,-407.3037523079315 L-803.4111878283043,-405.7976349196115 L-799.4067204849309,-404.299003243078 L-795.3994577100851,-402.80786251887184 L-791.3894135166948,-401.32421796133576 L-787.3766019274134,-399.8480747586009 L-783.3610369745722,-398.3794380725667 L-779.3427327001305,-396.9183130388842 L-775.321703155627,-395.4647047669346 L-771.2979624021294,-394.01861833981684 L-767.2715245101875,-392.5800588143243 L-763.2424035597817,-391.14903122093165 L-759.210613640275,-389.72554056377385 L-755.1761688503635,-388.3095918206309 L-751.1390832980275,-386.90118994290924 L-747.099371100481,-385.5003398556246 L-743.0570463841232,-384.10704645738633 L-739.0121232844893,-382.7213146203776 L-734.9646159462012,-381.34314919033886 L-730.9145385229162,-379.97255498655386 L-726.86190517728,-378.60953680183 L-722.8067300808759,-377.25409940248073 L-718.749027414175,-375.90624752831263 L-714.6888113664871,-374.5659858926051 L-710.6260961359118,-373.23331918209533 L-706.5608959292865,-371.9082520569632 L-702.49322496214,-370.59078915081227 L-698.4230974586399,-369.28093507065523 L-694.350527651544,-367.9786943969002 L-690.2755297821517,-366.68407168332715 L-686.1981181002515,-365.39707145708235 L-682.118306864074,-364.11769821865255 L-678.03611034024,-362.8459564418563 L-673.9515428037115,-361.5818505738257 L-669.8646185377419,-360.3253850349911 L-665.7753518338258,-359.0765642190636 L-661.6837569916485,-357.83539249302476 L-657.5898483190371,-356.60187419710473 L-653.49364013191,-355.37601364477314 L-649.395146754226,-354.1578151227204 L-645.2943825179356,-352.9472828908438 L-641.1913617629299,-351.74442118223214 L-637.0860988369913,-350.5492342031512 L-632.9786080957418,-349.3617261330305 L-628.868903902595,-348.1819011244461 L-624.7570006287036,-347.0097633031073 L-620.6429126529108,-345.8453167678431 L-616.5266543616999,-344.6885655905853 L-612.4082401491422,-343.5395138163585 L-608.2876844168494,-342.3981654632603 L-604.1650015739209,-341.2645245224535 L-600.0402060368949,-340.13859495814586 L-595.9133122296972,-339.02038070758135 L-591.7843345835912,-337.90988568102466 L-587.6532875371267,-336.8071137617462 L-583.5201855360908,-335.7120688060095 L-579.3850430334559,-334.6247546430591 L-575.24787448933,-333.545175075104 L-571.1086943709058,-332.4733338773076 L-566.9675171524106,-331.409234797773 L-562.8243573150545,-330.35288155753005 L-558.6792293469817,-329.3042778505219 L-554.5321477432179,-328.26342734359196 L-550.3831270056211,-327.2303336764726 L-546.2321816428295,-326.2050004617713 L-542.0793261702116,-325.18743128495817 L-537.9245751098161,-324.17762970435297 L-533.7679429903195,-323.175599251113 L-529.6094443469765,-322.1813434292212 L-525.4490937215687,-321.19486571547395 L-521.2869056623539,-320.21616955946774 L-517.1228947240155,-319.24525838358795 L-512.9570754676105,-318.2821355829974 L-508.7894624605202,-317.3268045256241 L-504.62007027639817,-316.37926855214664 L-500.44891349511937,-315.4395309759889 L-496.2760067027295,-314.50759508330157 L-492.1013644913939,-313.58346413295703 L-487.9250014593462,-312.6671413565309 L-483.74693221083805,-311.75862995829675 L-479.567171356087,-310.85793311521275 L-475.385733511226,-309.96505397691 L-471.20263329825286,-309.0799956656815 L-467.0178853449777,-308.20276127647276 L-462.83150428497277,-307.33335387686975 L-458.64350475752195,-306.4717765070868 L-454.4539014075674,-305.61803217996066 L-450.2627088856603,-304.77212388093403 L-446.06994184790926,-303.9340545680493 L-441.87561495592854,-303.10382717193534 L-437.6797428767865,-302.281444595802 L-433.4823402829558,-301.4669097154224 L-429.28342185226046,-300.66022537913113 L-425.08300226782535,-299.8613944078079 L-420.88109621802505,-299.0704195948697 L-416.67771839643126,-298.28730370626545 L-412.47288350176314,-297.51204948045734 L-408.26660623783505,-296.74465962841805 L-404.0589013135045,-295.9851368336217 L-399.8497834426219,-295.23348375202886 L-395.6392673439782,-294.48970301208374 L-391.4273677412544,-293.7537972146979 L-387.2140993629687,-293.02576893324976 L-382.99947694242616,-292.3056207135669 L-378.7835152176667,-291.5933550739246 L-374.56622893141383,-290.888974505031 L-370.3476328310225,-290.1924814700237 L-366.1277416684281,-289.5038784044559 L-361.9065702000951,-288.8231677162921 L-357.68413318696395,-288.1503517858978 L-353.4604453944018,-287.4854329660311 L-349.2355215921491,-286.8284135818353 L-345.0093765542681,-286.17929593083045 L-340.78202505909246,-285.5380822829038 L-336.553481889174,-284.90477488030456 L-332.3237618312319,-284.27937593763454 L-328.09287967610055,-283.6618876418406 L-323.86085021867837,-283.05231215220647 L-319.6276882578758,-282.45065160034665 L-315.39340859656306,-281.85690809019707 L-311.1580260415194,-281.2710836980091 L-306.92155540338035,-280.69318047234174 L-302.6840114965862,-280.12320043405543 L-298.44540913933133,-279.5611455763019 L-294.20576315351036,-279.0070178645228 L-289.9650883646674,-278.4608192364367 L-285.7233996019446,-277.9225516020365 L-281.48071169802984,-277.3922168435806 L-277.2370394891045,-276.8698168155879 L-272.9923978147925,-276.35535334482984 L-268.7468015181074,-275.8488282303242 L-264.50026544540117,-275.35024324333017 L-260.252804446312,-274.8596001273413 L-256.00443337371235,-274.3769005980789 L-251.7551670836575,-273.90214634348604 L-247.50502043533254,-273.4353390237229 L-243.2540082910018,-272.9764802711602 L-239.0021455159556,-272.52557169037345 L-234.74944697845888,-272.0826148581359 L-230.4959275496998,-271.64761132341573 L-226.2416021037361,-271.22056260737054 L-221.98648551744452,-270.8014702033379 L-217.73059267046835,-270.39033557683615 L-213.47393844516546,-269.9871601655541 L-209.216537726556,-269.59194537934945 L-204.9584054022706,-269.20469260024083 L-200.69955636249824,-268.8254031824067 L-196.44000549993405,-268.4540784521769 L-192.17976770972746,-268.09071970803143 L-187.91885788943023,-267.7353282205918 L-183.65729093894333,-267.38790523262196 L-179.39508176046672,-267.04845195901817 L-175.1322452584452,-266.7169695868088 L-170.8687963395182,-266.3934592751493 L-166.60474991246554,-266.0779221553171 L-162.3401208881578,-265.77035933070783 L-158.0749241795014,-265.47077187683317 L-153.8091747013891,-265.1791608413155 L-149.5428873706461,-264.8955272438834 L-145.27607710597817,-264.6198720763714 L-141.00875882792013,-264.35219630271285 L-136.74094745878324,-264.0925008589388 L-132.47265792260316,-263.8407866531729 L-128.20390514508654,-263.59705456563097 L-123.93470405356163,-263.361305448615 L-119.66506957692354,-263.13354012651234 L-115.39501664558225,-262.91375939579166 L-111.12456019141246,-262.7019640249996 L-106.85371514769838,-262.4981547547609 L-102.58249644908426,-262.30233229777195 L-98.31091903152083,-262.11449733880045 L-94.03899783221243,-261.9346505346848 L-89.76674778956624,-261.7627925143265 L-85.49418384313924,-261.5989238786933 L-81.22132093358618,-261.44304520081505 L-76.94817400260706,-261.295157025781 L-72.67475799289514,-261.1552598707385 L-68.40108784808467,-261.02335422489114 L-64.12717851269838,-260.89944054949865 L-59.85304493209571,-260.7835192778716 L-55.57870205242011,-260.67559081537365 L-51.304164820546816,-260.57565553941777 L-47.0294481840308,-260.48371379946593 L-42.75456709105481,-260.39976591702725 L-38.47953649037572,-260.32381218565797 L-34.20437133127405,-260.2558528709592 L-29.92908656350039,-260.19588821057687 L-25.65369713722407,-260.14391841420047 L-21.37821800297968,-260.09994366356204 L-17.10266411161649,-260.0639641124362 L-12.827050414244127,-260.03597988663887 L-8.551391862182186,-260.015991084028 L-4.275703406906359,-260.00399777450184 L2.1600499167107046e-12,-260.0 "/>

       </g>
    </g>
    
</svg>